<svg id="Warstwa_1" data-name="Warstwa 1" xmlns="http://www.w3.org/2000/svg" viewBox="0 0 600.91 145.04"><defs><style>.cls-1{fill:#f3d546;}</style></defs><title>Błazej Sobala White</title><path class="cls-1" d="M180.84,98.75a19.89,19.89,0,0,0,2.39-1.23,18.09,18.09,0,0,0,4.46-3.77,16.26,16.26,0,0,0,2.8-4.77,15.16,15.16,0,0,0,1-5.38,19,19,0,0,0-1.4-7.47,14.51,14.51,0,0,0-4.33-5.68A19.68,19.68,0,0,0,178.54,67a39,39,0,0,0-10-1.15h-20v67.92h22.38a34,34,0,0,0,9.7-1.28,20.94,20.94,0,0,0,7.34-3.75,16.43,16.43,0,0,0,4.61-6,19.39,19.39,0,0,0,1.58-8,15,15,0,0,0-4.51-11.3,20,20,0,0,0-8.82-4.67M155.31,71.6h13.21c5.61,0,9.78,1.08,12.39,3.2s3.85,5.15,3.85,9.31a12.3,12.3,0,0,1-.91,4.61,10.93,10.93,0,0,1-2.8,4,14.3,14.3,0,0,1-5,2.87,22.11,22.11,0,0,1-7.47,1.11h-13.3Zm28,52.81c-2.75,2.34-7,3.52-12.49,3.52H155.31V102.16H170.9a26.18,26.18,0,0,1,7.13.89,15.15,15.15,0,0,1,5.16,2.51,10.76,10.76,0,0,1,3.13,3.88,11.9,11.9,0,0,1,1.09,5.19c0,4.26-1.33,7.46-4.07,9.78" transform="translate(-58.83 -34.93)"/><path class="cls-1" d="M216.67,64h-6.43V93.68l-7.65,3.63a2.34,2.34,0,0,0-1.43,2.27v4l9.08-4.19v34.38h6.43v-37l7.66-3.63a2.41,2.41,0,0,0,1.16-1,2.81,2.81,0,0,0,.31-1.33V86.89L216.67,91Z" transform="translate(-58.83 -34.93)"/><path class="cls-1" d="M263.42,89.55a13.19,13.19,0,0,0-5-3.68,17.6,17.6,0,0,0-6.91-1.27,22.39,22.39,0,0,0-9.51,2,28,28,0,0,0-7.92,5.69l-.55.55,1.17,2A2.53,2.53,0,0,0,237,96.15,3.72,3.72,0,0,0,239.35,95a25.35,25.35,0,0,1,2.55-2,19.61,19.61,0,0,1,3.79-1.94,14.59,14.59,0,0,1,5.33-.86c3.35,0,5.78,1,7.45,3.09s2.55,5.25,2.55,9.28v3.87a79,79,0,0,0-12.68,1.3,35.76,35.76,0,0,0-9.45,3.07,14.94,14.94,0,0,0-5.61,4.71,10.71,10.71,0,0,0-1.84,6,13.81,13.81,0,0,0,1.14,5.85,11.66,11.66,0,0,0,3,4,12.67,12.67,0,0,0,4.31,2.33,16.55,16.55,0,0,0,4.91.74,25,25,0,0,0,5.44-.56,20.17,20.17,0,0,0,4.65-1.64,23.81,23.81,0,0,0,4.11-2.63c.79-.62,1.6-1.31,2.4-2l.43,3.92,0,.13a2.6,2.6,0,0,0,2.69,2.07h2.77V102.56a25.64,25.64,0,0,0-1-7.3,16,16,0,0,0-3-5.71M261,122c-1,1-2,1.92-3,2.77a20.2,20.2,0,0,1-3.43,2.38,18.19,18.19,0,0,1-4,1.54,19.2,19.2,0,0,1-4.71.55,10.91,10.91,0,0,1-3.2-.47,7,7,0,0,1-2.58-1.41A7.06,7.06,0,0,1,238.4,125a8.79,8.79,0,0,1-.68-3.62,6.09,6.09,0,0,1,1.27-3.8,10.73,10.73,0,0,1,4.18-3,32.09,32.09,0,0,1,7.63-2.14,78.62,78.62,0,0,1,10.22-1Z" transform="translate(-58.83 -34.93)"/><path class="cls-1" d="M276.76,90.89h27.3l-27.93,37.76a3.92,3.92,0,0,0-.9,2.33v2.77H311.1v-5.5H283.57l27.81-37.59a3.72,3.72,0,0,0,.88-2.4V85.39h-35.5Z" transform="translate(-58.83 -34.93)"/><path class="cls-1" d="M291.22,73.4h0a5.26,5.26,0,0,0,1.61,1.09,5,5,0,0,0,4,0,5.12,5.12,0,0,0,1.61-1.1,5.67,5.67,0,0,0,1.1-1.55,4.5,4.5,0,0,0,.45-2,4.8,4.8,0,0,0-.44-2,5.47,5.47,0,0,0-1.11-1.63,5.26,5.26,0,0,0-1.61-1.09,5,5,0,0,0-4,0,5.26,5.26,0,0,0-1.61,1.09,5.18,5.18,0,0,0-1.1,1.65,5.07,5.07,0,0,0-.4,2,4.86,4.86,0,0,0,.41,2,5.28,5.28,0,0,0,1.09,1.57" transform="translate(-58.83 -34.93)"/><path class="cls-1" d="M355.19,123.83a3.72,3.72,0,0,0-2.09,1,22.87,22.87,0,0,1-2.65,1.64,21.64,21.64,0,0,1-4.12,1.64,20,20,0,0,1-5.77.73,17,17,0,0,1-6.69-1.27,13.2,13.2,0,0,1-5-3.75,17.83,17.83,0,0,1-3.26-6.29,30.33,30.33,0,0,1-1.17-8.77h32.45a2.12,2.12,0,0,0,1.73-.74,3.12,3.12,0,0,0,.53-2,26.45,26.45,0,0,0-1.44-9,19.16,19.16,0,0,0-4-6.7,17.29,17.29,0,0,0-6.13-4.18,20.26,20.26,0,0,0-7.62-1.42,22.66,22.66,0,0,0-9.23,1.81,19.68,19.68,0,0,0-6.92,5,22.1,22.1,0,0,0-4.29,7.6,29.8,29.8,0,0,0-1.48,9.53,34.31,34.31,0,0,0,1.59,10.82,23,23,0,0,0,4.53,8.1,19.65,19.65,0,0,0,7.07,5.08,23.18,23.18,0,0,0,9.06,1.73,28.06,28.06,0,0,0,5.39-.53,31,31,0,0,0,5-1.42,22.47,22.47,0,0,0,4.3-2.17,13.88,13.88,0,0,0,3.19-2.82l.5-.63-1.68-2.06a2.05,2.05,0,0,0-1.75-.89m-29-25.11A15.35,15.35,0,0,1,329.37,94a13.15,13.15,0,0,1,4.56-3A16.57,16.57,0,0,1,340,90a13.94,13.94,0,0,1,5.38,1,11.55,11.55,0,0,1,4.11,2.9,13.21,13.21,0,0,1,2.68,4.66,18.74,18.74,0,0,1,1,5.36H324.75a21.2,21.2,0,0,1,1.47-5.17" transform="translate(-58.83 -34.93)"/><path class="cls-1" d="M377.19,66.77a5.26,5.26,0,0,0-1.61-1.09,5,5,0,0,0-4,0,5.1,5.1,0,0,0-2.71,2.74,5,5,0,0,0-.41,2,4.64,4.64,0,0,0,.42,2A5.2,5.2,0,0,0,370,74a5.29,5.29,0,0,0,1.61,1.1,5,5,0,0,0,4,0,5.29,5.29,0,0,0,1.61-1.1,5.67,5.67,0,0,0,1.1-1.55,4.54,4.54,0,0,0,.45-2,4.94,4.94,0,0,0-.44-2,5.61,5.61,0,0,0-1.11-1.62" transform="translate(-58.83 -34.93)"/><path class="cls-1" d="M370.36,138.66a7.56,7.56,0,0,1-1.57,5.16c-1,1.14-2.64,1.72-4.84,1.72a6,6,0,0,1-1.57-.15,5.14,5.14,0,0,0-1.32-.23,1.54,1.54,0,0,0-1.64,1.46l-.31,2.92.62.31a9.54,9.54,0,0,0,2.33.83,12.47,12.47,0,0,0,2.63.26A13.76,13.76,0,0,0,370,150a10.48,10.48,0,0,0,3.8-2.63,11.07,11.07,0,0,0,2.28-3.91,14.82,14.82,0,0,0,.75-4.8V85.39h-6.42Z" transform="translate(-58.83 -34.93)"/><path class="cls-1" d="M442.5,101.36A23.37,23.37,0,0,0,437,98.12c-2-.83-4.06-1.6-6.16-2.29s-4.09-1.36-6.07-2.06a23.76,23.76,0,0,1-5.08-2.48,12,12,0,0,1-3.47-3.44,9.13,9.13,0,0,1-1.26-5,11.7,11.7,0,0,1,.89-4.51,10.92,10.92,0,0,1,2.57-3.76A12.32,12.32,0,0,1,422.63,72a19.56,19.56,0,0,1,11.69-.13,19.73,19.73,0,0,1,3.89,1.83,21,21,0,0,1,2.47,1.81,3.42,3.42,0,0,0,2.23,1.12A2.31,2.31,0,0,0,445,75.3l1.46-2.79L446,72a23.35,23.35,0,0,0-7.78-5.21,25.71,25.71,0,0,0-9.58-1.7,23,23,0,0,0-8.51,1.49,19.33,19.33,0,0,0-6.32,4,17,17,0,0,0-3.92,5.76,17.91,17.91,0,0,0-1.33,6.77,16.53,16.53,0,0,0,1.53,7.5,15.34,15.34,0,0,0,4,5,22.16,22.16,0,0,0,5.54,3.24c2,.82,4.07,1.56,6.17,2.22s4.1,1.32,6.06,2a23.21,23.21,0,0,1,5.08,2.43,11.27,11.27,0,0,1,3.45,3.46,9.76,9.76,0,0,1,1.27,5.23,15.19,15.19,0,0,1-1.05,5.66,12.71,12.71,0,0,1-3,4.52,14.42,14.42,0,0,1-4.86,3,18.3,18.3,0,0,1-6.64,1.12,20,20,0,0,1-8.62-1.83,17.52,17.52,0,0,1-2.87-1.68c-.85-.62-1.58-1.2-2.17-1.72l-1.6-1.38a2.68,2.68,0,0,0-1.72-.79A2.61,2.61,0,0,0,407,122.2L405.23,125l.5.57a27.78,27.78,0,0,0,8.56,6.55,26.46,26.46,0,0,0,11.66,2.4,25.19,25.19,0,0,0,9.32-1.63,20.36,20.36,0,0,0,7-4.48,19.34,19.34,0,0,0,4.35-6.71,22.39,22.39,0,0,0,1.49-8.16,15.57,15.57,0,0,0-1.54-7.24,15.15,15.15,0,0,0-4-4.91" transform="translate(-58.83 -34.93)"/><path class="cls-1" d="M492.63,91.52a19.24,19.24,0,0,0-7-5.09,25.26,25.26,0,0,0-18.63,0,19.49,19.49,0,0,0-7,5.08,22.4,22.4,0,0,0-4.35,7.88,35.78,35.78,0,0,0,0,20.3,22.44,22.44,0,0,0,4.35,7.85,19.41,19.41,0,0,0,7,5.06,25.67,25.67,0,0,0,18.63,0,19.08,19.08,0,0,0,7-5.07,22.57,22.57,0,0,0,4.32-7.84,35.78,35.78,0,0,0,0-20.3,22.53,22.53,0,0,0-4.32-7.87m-1.77,26.17a17.1,17.1,0,0,1-2.92,6.06,12.89,12.89,0,0,1-4.8,3.78,18.18,18.18,0,0,1-13.65,0,12.81,12.81,0,0,1-4.8-3.78,17.31,17.31,0,0,1-2.95-6.06,33.23,33.23,0,0,1,0-16.26,17.56,17.56,0,0,1,2.95-6.11,12.92,12.92,0,0,1,4.8-3.83,17.9,17.9,0,0,1,13.64,0,13,13,0,0,1,4.81,3.83,17.38,17.38,0,0,1,2.92,6.1,33.92,33.92,0,0,1,0,16.27" transform="translate(-58.83 -34.93)"/><path class="cls-1" d="M530.26,84.65a18.78,18.78,0,0,0-9.64,2.51A24.09,24.09,0,0,0,515,91.74L515,64h-6.42v69.79h3.67a2.15,2.15,0,0,0,2.24-2.12l.15-3a17.53,17.53,0,0,0,4.67,3.72,18.45,18.45,0,0,0,8.83,2,20.26,20.26,0,0,0,9.1-2,19.74,19.74,0,0,0,6.68-5.37,23.59,23.59,0,0,0,4.09-8,33.88,33.88,0,0,0,1.37-9.77c0-8.09-1.68-14.26-5-18.36s-8.11-6.26-14.08-6.26m11.5,32.71a18.26,18.26,0,0,1-3,6.19,13.24,13.24,0,0,1-4.8,3.92,15.4,15.4,0,0,1-6.75,1.39,15.58,15.58,0,0,1-7-1.5,14.76,14.76,0,0,1-5.33-5V98.5a22.65,22.65,0,0,1,6.21-6.09A14.37,14.37,0,0,1,529,90.19c4.48,0,7.8,1.47,10.18,4.49s3.61,7.95,3.61,14.59a30.52,30.52,0,0,1-1,8.09" transform="translate(-58.83 -34.93)"/><path class="cls-1" d="M588.35,89.55a13.08,13.08,0,0,0-5-3.68,17.67,17.67,0,0,0-6.91-1.27,22.36,22.36,0,0,0-9.51,2A28,28,0,0,0,559,92.25l-.54.55,1.17,2a2.51,2.51,0,0,0,2.27,1.35,3.74,3.74,0,0,0,2.4-1.19,24.25,24.25,0,0,1,2.55-2,19.5,19.5,0,0,1,3.78-1.94,14.64,14.64,0,0,1,5.34-.86c3.34,0,5.78,1,7.44,3.09s2.55,5.25,2.55,9.28v3.87a79.13,79.13,0,0,0-12.68,1.3,35.8,35.8,0,0,0-9.44,3.07,14.77,14.77,0,0,0-5.61,4.71,10.64,10.64,0,0,0-1.85,6,14,14,0,0,0,1.14,5.85,11.65,11.65,0,0,0,3,4,12.53,12.53,0,0,0,4.3,2.33,16.6,16.6,0,0,0,4.91.74,25,25,0,0,0,5.44-.56,20.17,20.17,0,0,0,4.65-1.64,23.43,23.43,0,0,0,4.11-2.63c.8-.62,1.6-1.3,2.41-2l.43,3.92,0,.13a2.61,2.61,0,0,0,2.7,2.07h2.77V102.56a25.63,25.63,0,0,0-1-7.3,15.81,15.81,0,0,0-3-5.71M586,122c-1,1-2,1.93-3,2.77a19.81,19.81,0,0,1-3.43,2.38,18,18,0,0,1-4,1.54,19.15,19.15,0,0,1-4.71.55,11,11,0,0,1-3.2-.47,6.77,6.77,0,0,1-4.34-3.86,8.82,8.82,0,0,1-.68-3.62,6.1,6.1,0,0,1,1.26-3.8,10.81,10.81,0,0,1,4.18-3,32.37,32.37,0,0,1,7.63-2.14,78.79,78.79,0,0,1,10.22-1Z" transform="translate(-58.83 -34.93)"/><rect class="cls-1" x="546.74" y="29.03" width="6.43" height="69.78"/><path class="cls-1" d="M658.77,95.26a16,16,0,0,0-3-5.71,13.23,13.23,0,0,0-5-3.68,17.69,17.69,0,0,0-6.92-1.27,22.35,22.35,0,0,0-9.5,2,27.88,27.88,0,0,0-7.93,5.69l-.55.55,1.17,2a2.53,2.53,0,0,0,2.28,1.35A3.72,3.72,0,0,0,631.74,95a25.35,25.35,0,0,1,2.55-2,19.61,19.61,0,0,1,3.79-1.94,14.64,14.64,0,0,1,5.34-.86c3.34,0,5.77,1,7.44,3.09s2.55,5.25,2.55,9.28v3.87a79,79,0,0,0-12.68,1.3,35.76,35.76,0,0,0-9.45,3.07,14.92,14.92,0,0,0-5.61,4.71,10.71,10.71,0,0,0-1.84,6,13.81,13.81,0,0,0,1.14,5.85,11.65,11.65,0,0,0,3,4,12.53,12.53,0,0,0,4.3,2.33,16.55,16.55,0,0,0,4.91.74,25,25,0,0,0,5.44-.56,20.17,20.17,0,0,0,4.65-1.64,23.81,23.81,0,0,0,4.11-2.63c.79-.62,1.6-1.3,2.4-2l.44,3.92,0,.13a2.6,2.6,0,0,0,2.69,2.07h2.77V102.56a25.64,25.64,0,0,0-1-7.3M653.41,122c-1,1-2,1.93-3,2.77a20.2,20.2,0,0,1-3.43,2.38,18.19,18.19,0,0,1-4,1.54,19.2,19.2,0,0,1-4.71.55,10.91,10.91,0,0,1-3.2-.47,6.85,6.85,0,0,1-2.57-1.41,7,7,0,0,1-1.78-2.45,8.82,8.82,0,0,1-.68-3.62,6.11,6.11,0,0,1,1.27-3.8,10.73,10.73,0,0,1,4.18-3,32.23,32.23,0,0,1,7.63-2.14,78.62,78.62,0,0,1,10.22-1Z" transform="translate(-58.83 -34.93)"/><path class="cls-1" d="M135.51,113c-.42-7.18-5.49-13.86-15.09-19.85l-.86-.53-.53-.31a8.57,8.57,0,0,1-.78-.61l-.2-.18c-2.92-2.13-6.52-4.57-11-7.46-.71-.46-1.44-.93-2.12-1.35-6.73-4.94-10.3-10.24-10.62-15.75l-.08-1.33v-.4A19.54,19.54,0,0,1,96.34,57a40.44,40.44,0,0,1,3.71-5.73A52.86,52.86,0,0,1,108,43.91c5.41-3.14,10.18-4.85,14.2-5.09a13.9,13.9,0,0,1,4.08.37c2.39.6,3.65,2.6,3.86,6.11a27.84,27.84,0,0,1-.24,5.19,3.42,3.42,0,0,0-1.43,2.82l0,.33a2.37,2.37,0,0,0,2.16,2.21h.59a3.11,3.11,0,0,0,1.43-.47l.39-.26.14-.44a26.9,26.9,0,0,0,1.59-9.55,11.7,11.7,0,0,0-1.19-4.68l0,0c-2.18-3.92-5.89-5.75-11-5.46l-.88,0c-4.94.29-10.49,2.36-17,6.35a61.91,61.91,0,0,0-7,5.72c-6.17,6.48-9.12,12.82-8.77,18.84l.06,1c.36,6.22,4.23,12.07,11.5,17.42a34.61,34.61,0,0,0-4.06,1.29Q91,87.61,83.27,95a50.47,50.47,0,0,0-5.52,7.62,117.93,117.93,0,0,1,1.62-18.38A6.46,6.46,0,0,0,82.27,79v-.14a3.36,3.36,0,0,0-1.64-3l-.24-.15-.29-.06c-2.3-.45-4.47.74-6.46,3.52C72.32,81,71,88.25,71,127.71v2.51c0,15,.08,28.48.23,39.94V171l1.59,1.15H74.2L75.79,171v-.83c0-13.57.46-29.23,1.37-46.63,0-7.42,1.55-13.69,4.6-18.63l.08-.16c1.33-2.78,4.33-6.28,8.81-10.3,5.21-3.85,9.59-5.88,12.68-5.88,1.76,0,1.76.48,1.76.71,0,1.56-1.83,6.36-14.11,21-12.21,14-12.21,15.63-12.21,16.57v.83l.34.44A2.47,2.47,0,0,0,81,129.32h.5l.25-.08c9-3.06,16.13-4.62,21.06-4.62H104a16.11,16.11,0,0,1,10.16,3.31,21.87,21.87,0,0,1,4.68,6.17,27.8,27.8,0,0,1-2.39,1.89c-5.4,3.14-10.18,4.85-14.2,5.08a13.57,13.57,0,0,1-4.08-.37c-2.39-.6-3.65-2.59-3.85-6.1-.09-1.55-4.81-2.47-4.66.16a11.87,11.87,0,0,0,1.22,4.71c2.17,3.92,5.88,5.76,11,5.46l.88-.05c4.94-.29,10.5-2.35,17-6.35l.51-.36a17.36,17.36,0,0,1,.42,3.83,38.49,38.49,0,0,1-.55,4.08c-2.24,7.29-7,13.84-14,19.42C97.12,172,89,175.23,82,175.23H79.65a18.71,18.71,0,0,1-8-2.38c-5.57-3.66-8.28-7.6-8.28-12a9.39,9.39,0,0,1,2.76-6.28c1.91-1.65,2.49-2.45,2.49-3.39v-.52l-.3-.42A2.23,2.23,0,0,0,66.51,149H65.6l-.44.34c-4.2,3.24-6.33,7.09-6.33,11.45,0,3.91,1.62,7.73,4.9,11.46,5.09,5.09,10.82,7.68,17,7.68a41.71,41.71,0,0,0,10.45-1.59,68.83,68.83,0,0,0,19-9.19c10.63-8.12,16-17.06,16-26.56a23.36,23.36,0,0,0-1.46-7.94c.68-.59,1.37-1.21,2.09-1.87,6.17-6.48,9.12-12.82,8.77-18.85Zm-7.45,9.9a39.73,39.73,0,0,1-3.7,5.74c-.64.68-1.24,1.32-1.83,1.92-4.49-7.07-10.92-10.65-19.2-10.65a54.72,54.72,0,0,0-15,2.53c13.86-14.86,21-25.18,21.61-31.45,2.15,1.48,4.59,3.1,7.37,4.89l2.12,1.35c6.73,4.93,10.31,10.23,10.63,15.75l.07,1.33v.4a19.35,19.35,0,0,1-2.13,8.19" transform="translate(-58.83 -34.93)"/></svg>