<svg xmlns="http://www.w3.org/2000/svg" xmlns:xlink="http://www.w3.org/1999/xlink" fill="#FFF" version="1.1" enable-background="new 0 0 60 60" xml:space="preserve" width="39" height="39"><rect id="backgroundrect" width="100%" height="100%" x="0" y="0" fill="none" stroke="none"/><g class="currentLayer"><title>Layer 1</title><g id="svg_1" class=""><path fill="none" d="M25.89999847412109,11.400000190734865 v-3.1 h-4.2 c-2.2,0 -4,1.9 -4,4.2 v4 h-4.1 v2.9 h4.1 v11.6 h3.5 V19.400000190734865 h4.7 v-2.9 h-4.7 v-3.4 c0,-0.9 0.7000000000000001,-1.7000000000000002 1.5,-1.7000000000000002 H25.89999847412109 z" id="svg_2"/><path d="M31.499998474121092,1.9073486257070726e-7 h-24 c-4.1,0 -7.5,3.4 -7.5,7.5 v24 c0,4.1 3.4,7.5 7.5,7.5 h24 c4.1,0 7.5,-3.4 7.5,-7.5 v-24 C38.99999847412109,3.400000190734863 35.699998474121095,1.9073486257070726e-7 31.499998474121092,1.9073486257070726e-7 zM21.199998474121095,13.100000190734864 v3.4 h4.7 v2.9 h-4.7 v11.6 h-3.5 V19.400000190734865 h-4.1 v-2.9 h4.1 v-4 c0,-2.3 1.8,-4.2 4,-4.2 h4.2 v3.1 h-3.2 C21.89999847412109,11.400000190734865 21.199998474121095,12.200000190734862 21.199998474121095,13.100000190734864 z" id="svg_3"/></g></g></svg>