<svg fill="#F7F6F5" xmlns:dc="http://purl.org/dc/elements/1.1/" xmlns:cc="http://creativecommons.org/ns#" xmlns:rdf="http://www.w3.org/1999/02/22-rdf-syntax-ns#" xmlns:svg="http://www.w3.org/2000/svg" xmlns="http://www.w3.org/2000/svg" xmlns:sodipodi="http://sodipodi.sourceforge.net/DTD/sodipodi-0.dtd" xmlns:inkscape="http://www.inkscape.org/namespaces/inkscape" version="1.1" x="0px" y="0px" viewBox="0 0 100 100"><g transform="translate(0,-952.36218)"><path d="m 50,961.36219 c -14.9117,0 -27,12.0883 -27,27 0,5.3743 1.58095,10.38538 4.28125,14.59371 L 50,1036.3622 72.71875,1002.9559 C 75.53058,998.82135 77,993.73649 77,988.36219 c 0,-14.9117 -12.0883,-27 -27,-27 z m 0,15 c 6.62742,0 12,5.37264 12,12 0,6.62736 -5.37258,12.00001 -12,12.00001 -6.62742,0 -12,-5.37265 -12,-12.00001 0,-6.62736 5.37258,-12 12,-12 z m -8.625,50.25001 c -5.00371,1.5665 -8.375,4.4496 -8.375,7.75 0,4.9705 7.61116,9 17,9 9.38884,0 17,-4.0295 17,-9 0,-3.3004 -3.37129,-6.1835 -8.375,-7.75 -2.87364,4.4904 -5.7421,8.9842 -8.625,13.4687 -2.88415,-4.4837 -5.75192,-8.9779 -8.625,-13.4687 z" style="color:#000000;enable-background:accumulate;" fill="#F7F6F5" fill-opacity="1" fill-rule="nonzero" stroke="none" marker="none" visibility="visible" display="inline" overflow="visible"></path></g></svg>