<svg fill="#F7F6F5" xmlns="http://www.w3.org/2000/svg" xmlns:xlink="http://www.w3.org/1999/xlink" version="1.1" x="0px" y="0px" viewBox="0 0 100 100" style="enable-background:new 0 0 100 100;" xml:space="preserve"><path d="M69,3H31c-3.6,0-6.5,2.9-6.5,6.5v81c0,3.6,2.9,6.5,6.5,6.5h38c3.6,0,6.5-2.9,6.5-6.5v-81C75.5,5.9,72.6,3,69,3z M48,11h4  c1.4,0,2.5,1.1,2.5,2.5S53.4,16,52,16h-4c-1.4,0-2.5-1.1-2.5-2.5S46.6,11,48,11z M54,88h-8c-1.4,0-2.5-1.1-2.5-2.5S44.6,83,46,83h8  c1.4,0,2.5,1.1,2.5,2.5S55.4,88,54,88z M70.5,77h-41V21h41V77z"></path></svg>